<?xml version="1.0" encoding="utf-8" standalone="no"?>
<!DOCTYPE svg PUBLIC "-//W3C//DTD SVG 1.1//EN"
  "http://www.w3.org/Graphics/SVG/1.1/DTD/svg11.dtd">
<svg xmlns:xlink="http://www.w3.org/1999/xlink" width="576pt" height="374.4pt" viewBox="0 0 576 374.4" xmlns="http://www.w3.org/2000/svg" version="1.1">
 <metadata>
  <rdf:RDF xmlns:dc="http://purl.org/dc/elements/1.1/" xmlns:cc="http://creativecommons.org/ns#" xmlns:rdf="http://www.w3.org/1999/02/22-rdf-syntax-ns#">
   <cc:Work>
    <dc:type rdf:resource="http://purl.org/dc/dcmitype/StillImage"/>
    <dc:date>2026-05-18T15:32:55.776812</dc:date>
    <dc:format>image/svg+xml</dc:format>
    <dc:creator>
     <cc:Agent>
      <dc:title>Matplotlib v3.10.9, https://matplotlib.org/</dc:title>
     </cc:Agent>
    </dc:creator>
   </cc:Work>
  </rdf:RDF>
 </metadata>
 <defs>
  <style type="text/css">*{stroke-linejoin: round; stroke-linecap: butt}</style>
 </defs>
 <g id="figure_1">
  <g id="patch_1">
   <path d="M 0 374.4 
L 576 374.4 
L 576 0 
L 0 0 
z
" style="fill: #ffffff"/>
  </g>
  <g id="axes_1">
   <g id="patch_2">
    <path d="M 51.41 328.84 
L 565.2 328.84 
L 565.2 10.8 
L 51.41 10.8 
z
" style="fill: #ffffff"/>
   </g>
   <g id="FillBetweenPolyCollection_1">
    <defs>
     <path id="m1cf46c4e69" d="M 74.764091 -142.480941 
L 74.764091 -130.515322 
L 90.870361 -110.699715 
L 106.97663 -89.248605 
L 123.0829 -82.829606 
L 139.189169 -79.610633 
L 155.295439 -77.41295 
L 171.401708 -75.373965 
L 187.507978 -73.636066 
L 203.614248 -72.034427 
L 219.720517 -70.658167 
L 235.826787 -69.54377 
L 251.933056 -68.674616 
L 268.039326 -67.900232 
L 284.145596 -67.252574 
L 300.251865 -66.665812 
L 316.358135 -66.158011 
L 332.464404 -65.612186 
L 348.570674 -65.139155 
L 364.676944 -64.728241 
L 380.783213 -64.365539 
L 396.889483 -63.957945 
L 412.995752 -63.561165 
L 429.102022 -63.306697 
L 445.208292 -63.018835 
L 461.314561 -62.729433 
L 477.420831 -62.376903 
L 493.5271 -62.296966 
L 509.63337 -62.08685 
L 525.739639 -61.812266 
L 541.845909 -61.442396 
L 541.845909 -64.394257 
L 541.845909 -64.394257 
L 525.739639 -64.551437 
L 509.63337 -64.932216 
L 493.5271 -65.324957 
L 477.420831 -65.851511 
L 461.314561 -66.376675 
L 445.208292 -66.596782 
L 429.102022 -66.84358 
L 412.995752 -67.056533 
L 396.889483 -67.557582 
L 380.783213 -68.076467 
L 364.676944 -68.686481 
L 348.570674 -69.213185 
L 332.464404 -69.887602 
L 316.358135 -70.450261 
L 300.251865 -71.199578 
L 284.145596 -71.900542 
L 268.039326 -72.792793 
L 251.933056 -73.586722 
L 235.826787 -74.500423 
L 219.720517 -75.333011 
L 203.614248 -76.409433 
L 187.507978 -77.479254 
L 171.401708 -78.802018 
L 155.295439 -80.353223 
L 139.189169 -82.306433 
L 123.0829 -85.276991 
L 106.97663 -92.18122 
L 90.870361 -118.105181 
L 74.764091 -142.480941 
z
"/>
    </defs>
    <g clip-path="url(#pf3dd86ec4a)">
     <use xlink:href="#m1cf46c4e69" x="0" y="374.4" style="fill: #005ab5; fill-opacity: 0.15"/>
    </g>
   </g>
   <g id="FillBetweenPolyCollection_2">
    <defs>
     <path id="m0376635b9b" d="M 74.764091 -206.409215 
L 74.764091 -179.413072 
L 90.870361 -174.359649 
L 106.97663 -168.823946 
L 123.0829 -166.377585 
L 139.189169 -163.480769 
L 155.295439 -159.862521 
L 171.401708 -159.337379 
L 187.507978 -157.398979 
L 203.614248 -156.976497 
L 219.720517 -156.357647 
L 235.826787 -156.551183 
L 251.933056 -153.817444 
L 268.039326 -148.643988 
L 284.145596 -145.820327 
L 300.251865 -143.532692 
L 316.358135 -143.540467 
L 332.464404 -142.434869 
L 348.570674 -142.224875 
L 364.676944 -140.8782 
L 380.783213 -138.599562 
L 396.889483 -137.816674 
L 412.995752 -137.079702 
L 429.102022 -137.982874 
L 445.208292 -137.281543 
L 461.314561 -136.012619 
L 477.420831 -134.321628 
L 493.5271 -133.707619 
L 509.63337 -132.808246 
L 525.739639 -132.871579 
L 541.845909 -133.15012 
L 541.845909 -140.048187 
L 541.845909 -140.048187 
L 525.739639 -143.201961 
L 509.63337 -145.014183 
L 493.5271 -144.894223 
L 477.420831 -141.469572 
L 461.314561 -140.041298 
L 445.208292 -140.963495 
L 429.102022 -142.640991 
L 412.995752 -144.616961 
L 396.889483 -144.31124 
L 380.783213 -145.662121 
L 364.676944 -147.373364 
L 348.570674 -147.827531 
L 332.464404 -150.182475 
L 316.358135 -149.9717 
L 300.251865 -152.40346 
L 284.145596 -150.821138 
L 268.039326 -153.207833 
L 251.933056 -159.34437 
L 235.826787 -163.084095 
L 219.720517 -164.036842 
L 203.614248 -164.86054 
L 187.507978 -166.718684 
L 171.401708 -169.379936 
L 155.295439 -172.531004 
L 139.189169 -173.593054 
L 123.0829 -177.517306 
L 106.97663 -179.159761 
L 90.870361 -194.582132 
L 74.764091 -206.409215 
z
"/>
    </defs>
    <g clip-path="url(#pf3dd86ec4a)">
     <use xlink:href="#m0376635b9b" x="0" y="374.4" style="fill: #008000; fill-opacity: 0.15"/>
    </g>
   </g>
   <g id="FillBetweenPolyCollection_3">
    <defs>
     <path id="m6d133c986d" d="M 74.764091 -137.115401 
L 74.764091 -126.2779 
L 90.870361 -107.496624 
L 106.97663 -87.226403 
L 123.0829 -81.046167 
L 139.189169 -77.694317 
L 155.295439 -75.103059 
L 171.401708 -73.013524 
L 187.507978 -71.237271 
L 203.614248 -69.850554 
L 219.720517 -68.75385 
L 235.826787 -67.916645 
L 251.933056 -67.13238 
L 268.039326 -66.390318 
L 284.145596 -65.793255 
L 300.251865 -65.239294 
L 316.358135 -64.884338 
L 332.464404 -64.224504 
L 348.570674 -63.79511 
L 364.676944 -63.261591 
L 380.783213 -63.019205 
L 396.889483 -62.576277 
L 412.995752 -62.233368 
L 429.102022 -61.893795 
L 445.208292 -61.728531 
L 461.314561 -61.468376 
L 477.420831 -61.096067 
L 493.5271 -60.649484 
L 509.63337 -60.356627 
L 525.739639 -60.130075 
L 541.845909 -60.016364 
L 541.845909 -62.934802 
L 541.845909 -62.934802 
L 525.739639 -63.179072 
L 509.63337 -63.41618 
L 493.5271 -63.590082 
L 477.420831 -63.77908 
L 461.314561 -64.155647 
L 445.208292 -64.465488 
L 429.102022 -64.867724 
L 412.995752 -65.115636 
L 396.889483 -65.568963 
L 380.783213 -65.947025 
L 364.676944 -66.690546 
L 348.570674 -67.152301 
L 332.464404 -67.716434 
L 316.358135 -68.095527 
L 300.251865 -68.744338 
L 284.145596 -69.449387 
L 268.039326 -70.262939 
L 251.933056 -71.093447 
L 235.826787 -72.194571 
L 219.720517 -73.31893 
L 203.614248 -74.664873 
L 187.507978 -75.990273 
L 171.401708 -77.438272 
L 155.295439 -78.966532 
L 139.189169 -80.923064 
L 123.0829 -83.836145 
L 106.97663 -90.280374 
L 90.870361 -114.406582 
L 74.764091 -137.115401 
z
"/>
    </defs>
    <g clip-path="url(#pf3dd86ec4a)">
     <use xlink:href="#m6d133c986d" x="0" y="374.4" style="fill: #dc3220; fill-opacity: 0.15"/>
    </g>
   </g>
   <g id="FillBetweenPolyCollection_4">
    <defs>
     <path id="ma2b0e843ec" d="M 74.764091 -349.143636 
L 74.764091 -342.634259 
L 90.870361 -327.032692 
L 106.97663 -306.370368 
L 123.0829 -290.424366 
L 139.189169 -278.672205 
L 155.295439 -268.621164 
L 171.401708 -258.525627 
L 187.507978 -247.974448 
L 203.614248 -237.097452 
L 219.720517 -226.655448 
L 235.826787 -217.599369 
L 251.933056 -210.492683 
L 268.039326 -205.226813 
L 284.145596 -202.044298 
L 300.251865 -200.50251 
L 316.358135 -199.440588 
L 332.464404 -198.485873 
L 348.570674 -197.38533 
L 364.676944 -196.635152 
L 380.783213 -195.751964 
L 396.889483 -194.244404 
L 412.995752 -191.939431 
L 429.102022 -189.581821 
L 445.208292 -186.595208 
L 461.314561 -183.053146 
L 477.420831 -178.901278 
L 493.5271 -175.765708 
L 509.63337 -173.43159 
L 525.739639 -171.385152 
L 541.845909 -169.816953 
L 541.845909 -189.26764 
L 541.845909 -189.26764 
L 525.739639 -190.265461 
L 509.63337 -192.537665 
L 493.5271 -194.914835 
L 477.420831 -197.076166 
L 461.314561 -198.769827 
L 445.208292 -200.873582 
L 429.102022 -202.92682 
L 412.995752 -204.467818 
L 396.889483 -205.233876 
L 380.783213 -206.302355 
L 364.676944 -207.21396 
L 348.570674 -207.925543 
L 332.464404 -207.990356 
L 316.358135 -208.505401 
L 300.251865 -208.769352 
L 284.145596 -210.043575 
L 268.039326 -212.292885 
L 251.933056 -216.835369 
L 235.826787 -223.371198 
L 219.720517 -231.543706 
L 203.614248 -241.155954 
L 187.507978 -251.628362 
L 171.401708 -262.424136 
L 155.295439 -273.27625 
L 139.189169 -285.021597 
L 123.0829 -299.506345 
L 106.97663 -317.231984 
L 90.870361 -336.318992 
L 74.764091 -349.143636 
z
"/>
    </defs>
    <g clip-path="url(#pf3dd86ec4a)">
     <use xlink:href="#ma2b0e843ec" x="0" y="374.4" style="fill: #7b3294; fill-opacity: 0.15"/>
    </g>
   </g>
   <g id="FillBetweenPolyCollection_5">
    <defs>
     <path id="m0c48053ea8" d="M 74.764091 -341.306628 
L 74.764091 -332.41869 
L 90.870361 -313.806611 
L 106.97663 -289.768667 
L 123.0829 -271.27569 
L 139.189169 -255.4012 
L 155.295439 -239.899052 
L 171.401708 -225.374031 
L 187.507978 -213.42155 
L 203.614248 -205.171631 
L 219.720517 -201.115825 
L 235.826787 -200.07668 
L 251.933056 -199.617349 
L 268.039326 -197.44286 
L 284.145596 -194.408451 
L 300.251865 -190.595403 
L 316.358135 -186.416272 
L 332.464404 -181.961721 
L 348.570674 -177.318636 
L 364.676944 -173.640897 
L 380.783213 -170.131993 
L 396.889483 -167.31234 
L 412.995752 -164.652037 
L 429.102022 -162.829217 
L 445.208292 -160.999792 
L 461.314561 -158.874321 
L 477.420831 -156.080068 
L 493.5271 -153.440669 
L 509.63337 -151.091804 
L 525.739639 -149.027222 
L 541.845909 -147.863463 
L 541.845909 -164.008777 
L 541.845909 -164.008777 
L 525.739639 -165.167282 
L 509.63337 -167.27019 
L 493.5271 -169.30557 
L 477.420831 -171.321591 
L 461.314561 -173.067252 
L 445.208292 -175.836457 
L 429.102022 -179.04002 
L 412.995752 -182.607809 
L 396.889483 -185.800066 
L 380.783213 -189.455903 
L 364.676944 -192.923686 
L 348.570674 -196.361556 
L 332.464404 -198.718487 
L 316.358135 -201.070618 
L 300.251865 -202.154112 
L 284.145596 -203.590713 
L 268.039326 -204.821094 
L 251.933056 -206.1772 
L 235.826787 -207.482445 
L 219.720517 -209.251954 
L 203.614248 -213.505372 
L 187.507978 -221.05512 
L 171.401708 -232.18349 
L 155.295439 -246.029112 
L 139.189169 -261.329261 
L 123.0829 -278.589743 
L 106.97663 -299.591685 
L 90.870361 -323.770365 
L 74.764091 -341.306628 
z
"/>
    </defs>
    <g clip-path="url(#pf3dd86ec4a)">
     <use xlink:href="#m0c48053ea8" x="0" y="374.4" style="fill: #f17c05; fill-opacity: 0.15"/>
    </g>
   </g>
   <g id="matplotlib.axis_1">
    <g id="xtick_1">
     <g id="line2d_1">
      <path d="M 58.657821 328.84 
L 58.657821 10.8 
" clip-path="url(#pf3dd86ec4a)" style="fill: none; stroke: #b0b0b0; stroke-opacity: 0.3; stroke-width: 0.8; stroke-linecap: square"/>
     </g>
     <g id="line2d_2">
      <defs>
       <path id="m6484bfb2d6" d="M 0 0 
L 0 3.5 
" style="stroke: #000000; stroke-width: 0.8"/>
      </defs>
      <g>
       <use xlink:href="#m6484bfb2d6" x="58.657821" y="328.84" style="stroke: #000000; stroke-width: 0.8"/>
      </g>
     </g>
     <g id="text_1">
      <!-- 0 -->
      <g transform="translate(55.476571 343.438438) scale(0.1 -0.1)">
       <defs>
        <path id="DejaVuSans-30" d="M 2034 4250 
Q 1547 4250 1301 3770 
Q 1056 3291 1056 2328 
Q 1056 1369 1301 889 
Q 1547 409 2034 409 
Q 2525 409 2770 889 
Q 3016 1369 3016 2328 
Q 3016 3291 2770 3770 
Q 2525 4250 2034 4250 
z
M 2034 4750 
Q 2819 4750 3233 4129 
Q 3647 3509 3647 2328 
Q 3647 1150 3233 529 
Q 2819 -91 2034 -91 
Q 1250 -91 836 529 
Q 422 1150 422 2328 
Q 422 3509 836 4129 
Q 1250 4750 2034 4750 
z
" transform="scale(0.015625)"/>
       </defs>
       <use xlink:href="#DejaVuSans-30"/>
      </g>
     </g>
    </g>
    <g id="xtick_2">
     <g id="line2d_3">
      <path d="M 139.189169 328.84 
L 139.189169 10.8 
" clip-path="url(#pf3dd86ec4a)" style="fill: none; stroke: #b0b0b0; stroke-opacity: 0.3; stroke-width: 0.8; stroke-linecap: square"/>
     </g>
     <g id="line2d_4">
      <g>
       <use xlink:href="#m6484bfb2d6" x="139.189169" y="328.84" style="stroke: #000000; stroke-width: 0.8"/>
      </g>
     </g>
     <g id="text_2">
      <!-- 5 -->
      <g transform="translate(136.007919 343.438438) scale(0.1 -0.1)">
       <defs>
        <path id="DejaVuSans-35" d="M 691 4666 
L 3169 4666 
L 3169 4134 
L 1269 4134 
L 1269 2991 
Q 1406 3038 1543 3061 
Q 1681 3084 1819 3084 
Q 2600 3084 3056 2656 
Q 3513 2228 3513 1497 
Q 3513 744 3044 326 
Q 2575 -91 1722 -91 
Q 1428 -91 1123 -41 
Q 819 9 494 109 
L 494 744 
Q 775 591 1075 516 
Q 1375 441 1709 441 
Q 2250 441 2565 725 
Q 2881 1009 2881 1497 
Q 2881 1984 2565 2268 
Q 2250 2553 1709 2553 
Q 1456 2553 1204 2497 
Q 953 2441 691 2322 
L 691 4666 
z
" transform="scale(0.015625)"/>
       </defs>
       <use xlink:href="#DejaVuSans-35"/>
      </g>
     </g>
    </g>
    <g id="xtick_3">
     <g id="line2d_5">
      <path d="M 219.720517 328.84 
L 219.720517 10.8 
" clip-path="url(#pf3dd86ec4a)" style="fill: none; stroke: #b0b0b0; stroke-opacity: 0.3; stroke-width: 0.8; stroke-linecap: square"/>
     </g>
     <g id="line2d_6">
      <g>
       <use xlink:href="#m6484bfb2d6" x="219.720517" y="328.84" style="stroke: #000000; stroke-width: 0.8"/>
      </g>
     </g>
     <g id="text_3">
      <!-- 10 -->
      <g transform="translate(213.358017 343.438438) scale(0.1 -0.1)">
       <defs>
        <path id="DejaVuSans-31" d="M 794 531 
L 1825 531 
L 1825 4091 
L 703 3866 
L 703 4441 
L 1819 4666 
L 2450 4666 
L 2450 531 
L 3481 531 
L 3481 0 
L 794 0 
L 794 531 
z
" transform="scale(0.015625)"/>
       </defs>
       <use xlink:href="#DejaVuSans-31"/>
       <use xlink:href="#DejaVuSans-30" transform="translate(63.623047 0)"/>
      </g>
     </g>
    </g>
    <g id="xtick_4">
     <g id="line2d_7">
      <path d="M 300.251865 328.84 
L 300.251865 10.8 
" clip-path="url(#pf3dd86ec4a)" style="fill: none; stroke: #b0b0b0; stroke-opacity: 0.3; stroke-width: 0.8; stroke-linecap: square"/>
     </g>
     <g id="line2d_8">
      <g>
       <use xlink:href="#m6484bfb2d6" x="300.251865" y="328.84" style="stroke: #000000; stroke-width: 0.8"/>
      </g>
     </g>
     <g id="text_4">
      <!-- 15 -->
      <g transform="translate(293.889365 343.438438) scale(0.1 -0.1)">
       <use xlink:href="#DejaVuSans-31"/>
       <use xlink:href="#DejaVuSans-35" transform="translate(63.623047 0)"/>
      </g>
     </g>
    </g>
    <g id="xtick_5">
     <g id="line2d_9">
      <path d="M 380.783213 328.84 
L 380.783213 10.8 
" clip-path="url(#pf3dd86ec4a)" style="fill: none; stroke: #b0b0b0; stroke-opacity: 0.3; stroke-width: 0.8; stroke-linecap: square"/>
     </g>
     <g id="line2d_10">
      <g>
       <use xlink:href="#m6484bfb2d6" x="380.783213" y="328.84" style="stroke: #000000; stroke-width: 0.8"/>
      </g>
     </g>
     <g id="text_5">
      <!-- 20 -->
      <g transform="translate(374.420713 343.438438) scale(0.1 -0.1)">
       <defs>
        <path id="DejaVuSans-32" d="M 1228 531 
L 3431 531 
L 3431 0 
L 469 0 
L 469 531 
Q 828 903 1448 1529 
Q 2069 2156 2228 2338 
Q 2531 2678 2651 2914 
Q 2772 3150 2772 3378 
Q 2772 3750 2511 3984 
Q 2250 4219 1831 4219 
Q 1534 4219 1204 4116 
Q 875 4013 500 3803 
L 500 4441 
Q 881 4594 1212 4672 
Q 1544 4750 1819 4750 
Q 2544 4750 2975 4387 
Q 3406 4025 3406 3419 
Q 3406 3131 3298 2873 
Q 3191 2616 2906 2266 
Q 2828 2175 2409 1742 
Q 1991 1309 1228 531 
z
" transform="scale(0.015625)"/>
       </defs>
       <use xlink:href="#DejaVuSans-32"/>
       <use xlink:href="#DejaVuSans-30" transform="translate(63.623047 0)"/>
      </g>
     </g>
    </g>
    <g id="xtick_6">
     <g id="line2d_11">
      <path d="M 461.314561 328.84 
L 461.314561 10.8 
" clip-path="url(#pf3dd86ec4a)" style="fill: none; stroke: #b0b0b0; stroke-opacity: 0.3; stroke-width: 0.8; stroke-linecap: square"/>
     </g>
     <g id="line2d_12">
      <g>
       <use xlink:href="#m6484bfb2d6" x="461.314561" y="328.84" style="stroke: #000000; stroke-width: 0.8"/>
      </g>
     </g>
     <g id="text_6">
      <!-- 25 -->
      <g transform="translate(454.952061 343.438438) scale(0.1 -0.1)">
       <use xlink:href="#DejaVuSans-32"/>
       <use xlink:href="#DejaVuSans-35" transform="translate(63.623047 0)"/>
      </g>
     </g>
    </g>
    <g id="xtick_7">
     <g id="line2d_13">
      <path d="M 541.845909 328.84 
L 541.845909 10.8 
" clip-path="url(#pf3dd86ec4a)" style="fill: none; stroke: #b0b0b0; stroke-opacity: 0.3; stroke-width: 0.8; stroke-linecap: square"/>
     </g>
     <g id="line2d_14">
      <g>
       <use xlink:href="#m6484bfb2d6" x="541.845909" y="328.84" style="stroke: #000000; stroke-width: 0.8"/>
      </g>
     </g>
     <g id="text_7">
      <!-- 30 -->
      <g transform="translate(535.483409 343.438438) scale(0.1 -0.1)">
       <defs>
        <path id="DejaVuSans-33" d="M 2597 2516 
Q 3050 2419 3304 2112 
Q 3559 1806 3559 1356 
Q 3559 666 3084 287 
Q 2609 -91 1734 -91 
Q 1441 -91 1130 -33 
Q 819 25 488 141 
L 488 750 
Q 750 597 1062 519 
Q 1375 441 1716 441 
Q 2309 441 2620 675 
Q 2931 909 2931 1356 
Q 2931 1769 2642 2001 
Q 2353 2234 1838 2234 
L 1294 2234 
L 1294 2753 
L 1863 2753 
Q 2328 2753 2575 2939 
Q 2822 3125 2822 3475 
Q 2822 3834 2567 4026 
Q 2313 4219 1838 4219 
Q 1578 4219 1281 4162 
Q 984 4106 628 3988 
L 628 4550 
Q 988 4650 1302 4700 
Q 1616 4750 1894 4750 
Q 2613 4750 3031 4423 
Q 3450 4097 3450 3541 
Q 3450 3153 3228 2886 
Q 3006 2619 2597 2516 
z
" transform="scale(0.015625)"/>
       </defs>
       <use xlink:href="#DejaVuSans-33"/>
       <use xlink:href="#DejaVuSans-30" transform="translate(63.623047 0)"/>
      </g>
     </g>
    </g>
    <g id="text_8">
     <!-- communication round -->
     <g transform="translate(231.627656 360.155938) scale(0.14 -0.14)">
      <defs>
       <path id="DejaVuSans-63" d="M 3122 3366 
L 3122 2828 
Q 2878 2963 2633 3030 
Q 2388 3097 2138 3097 
Q 1578 3097 1268 2742 
Q 959 2388 959 1747 
Q 959 1106 1268 751 
Q 1578 397 2138 397 
Q 2388 397 2633 464 
Q 2878 531 3122 666 
L 3122 134 
Q 2881 22 2623 -34 
Q 2366 -91 2075 -91 
Q 1284 -91 818 406 
Q 353 903 353 1747 
Q 353 2603 823 3093 
Q 1294 3584 2113 3584 
Q 2378 3584 2631 3529 
Q 2884 3475 3122 3366 
z
" transform="scale(0.015625)"/>
       <path id="DejaVuSans-6f" d="M 1959 3097 
Q 1497 3097 1228 2736 
Q 959 2375 959 1747 
Q 959 1119 1226 758 
Q 1494 397 1959 397 
Q 2419 397 2687 759 
Q 2956 1122 2956 1747 
Q 2956 2369 2687 2733 
Q 2419 3097 1959 3097 
z
M 1959 3584 
Q 2709 3584 3137 3096 
Q 3566 2609 3566 1747 
Q 3566 888 3137 398 
Q 2709 -91 1959 -91 
Q 1206 -91 779 398 
Q 353 888 353 1747 
Q 353 2609 779 3096 
Q 1206 3584 1959 3584 
z
" transform="scale(0.015625)"/>
       <path id="DejaVuSans-6d" d="M 3328 2828 
Q 3544 3216 3844 3400 
Q 4144 3584 4550 3584 
Q 5097 3584 5394 3201 
Q 5691 2819 5691 2113 
L 5691 0 
L 5113 0 
L 5113 2094 
Q 5113 2597 4934 2840 
Q 4756 3084 4391 3084 
Q 3944 3084 3684 2787 
Q 3425 2491 3425 1978 
L 3425 0 
L 2847 0 
L 2847 2094 
Q 2847 2600 2669 2842 
Q 2491 3084 2119 3084 
Q 1678 3084 1418 2786 
Q 1159 2488 1159 1978 
L 1159 0 
L 581 0 
L 581 3500 
L 1159 3500 
L 1159 2956 
Q 1356 3278 1631 3431 
Q 1906 3584 2284 3584 
Q 2666 3584 2933 3390 
Q 3200 3197 3328 2828 
z
" transform="scale(0.015625)"/>
       <path id="DejaVuSans-75" d="M 544 1381 
L 544 3500 
L 1119 3500 
L 1119 1403 
Q 1119 906 1312 657 
Q 1506 409 1894 409 
Q 2359 409 2629 706 
Q 2900 1003 2900 1516 
L 2900 3500 
L 3475 3500 
L 3475 0 
L 2900 0 
L 2900 538 
Q 2691 219 2414 64 
Q 2138 -91 1772 -91 
Q 1169 -91 856 284 
Q 544 659 544 1381 
z
M 1991 3584 
L 1991 3584 
z
" transform="scale(0.015625)"/>
       <path id="DejaVuSans-6e" d="M 3513 2113 
L 3513 0 
L 2938 0 
L 2938 2094 
Q 2938 2591 2744 2837 
Q 2550 3084 2163 3084 
Q 1697 3084 1428 2787 
Q 1159 2491 1159 1978 
L 1159 0 
L 581 0 
L 581 3500 
L 1159 3500 
L 1159 2956 
Q 1366 3272 1645 3428 
Q 1925 3584 2291 3584 
Q 2894 3584 3203 3211 
Q 3513 2838 3513 2113 
z
" transform="scale(0.015625)"/>
       <path id="DejaVuSans-69" d="M 603 3500 
L 1178 3500 
L 1178 0 
L 603 0 
L 603 3500 
z
M 603 4863 
L 1178 4863 
L 1178 4134 
L 603 4134 
L 603 4863 
z
" transform="scale(0.015625)"/>
       <path id="DejaVuSans-61" d="M 2194 1759 
Q 1497 1759 1228 1600 
Q 959 1441 959 1056 
Q 959 750 1161 570 
Q 1363 391 1709 391 
Q 2188 391 2477 730 
Q 2766 1069 2766 1631 
L 2766 1759 
L 2194 1759 
z
M 3341 1997 
L 3341 0 
L 2766 0 
L 2766 531 
Q 2569 213 2275 61 
Q 1981 -91 1556 -91 
Q 1019 -91 701 211 
Q 384 513 384 1019 
Q 384 1609 779 1909 
Q 1175 2209 1959 2209 
L 2766 2209 
L 2766 2266 
Q 2766 2663 2505 2880 
Q 2244 3097 1772 3097 
Q 1472 3097 1187 3025 
Q 903 2953 641 2809 
L 641 3341 
Q 956 3463 1253 3523 
Q 1550 3584 1831 3584 
Q 2591 3584 2966 3190 
Q 3341 2797 3341 1997 
z
" transform="scale(0.015625)"/>
       <path id="DejaVuSans-74" d="M 1172 4494 
L 1172 3500 
L 2356 3500 
L 2356 3053 
L 1172 3053 
L 1172 1153 
Q 1172 725 1289 603 
Q 1406 481 1766 481 
L 2356 481 
L 2356 0 
L 1766 0 
Q 1100 0 847 248 
Q 594 497 594 1153 
L 594 3053 
L 172 3053 
L 172 3500 
L 594 3500 
L 594 4494 
L 1172 4494 
z
" transform="scale(0.015625)"/>
       <path id="DejaVuSans-20" transform="scale(0.015625)"/>
       <path id="DejaVuSans-72" d="M 2631 2963 
Q 2534 3019 2420 3045 
Q 2306 3072 2169 3072 
Q 1681 3072 1420 2755 
Q 1159 2438 1159 1844 
L 1159 0 
L 581 0 
L 581 3500 
L 1159 3500 
L 1159 2956 
Q 1341 3275 1631 3429 
Q 1922 3584 2338 3584 
Q 2397 3584 2469 3576 
Q 2541 3569 2628 3553 
L 2631 2963 
z
" transform="scale(0.015625)"/>
       <path id="DejaVuSans-64" d="M 2906 2969 
L 2906 4863 
L 3481 4863 
L 3481 0 
L 2906 0 
L 2906 525 
Q 2725 213 2448 61 
Q 2172 -91 1784 -91 
Q 1150 -91 751 415 
Q 353 922 353 1747 
Q 353 2572 751 3078 
Q 1150 3584 1784 3584 
Q 2172 3584 2448 3432 
Q 2725 3281 2906 2969 
z
M 947 1747 
Q 947 1113 1208 752 
Q 1469 391 1925 391 
Q 2381 391 2643 752 
Q 2906 1113 2906 1747 
Q 2906 2381 2643 2742 
Q 2381 3103 1925 3103 
Q 1469 3103 1208 2742 
Q 947 2381 947 1747 
z
" transform="scale(0.015625)"/>
      </defs>
      <use xlink:href="#DejaVuSans-63"/>
      <use xlink:href="#DejaVuSans-6f" transform="translate(54.980469 0)"/>
      <use xlink:href="#DejaVuSans-6d" transform="translate(116.162109 0)"/>
      <use xlink:href="#DejaVuSans-6d" transform="translate(213.574219 0)"/>
      <use xlink:href="#DejaVuSans-75" transform="translate(310.986328 0)"/>
      <use xlink:href="#DejaVuSans-6e" transform="translate(374.365234 0)"/>
      <use xlink:href="#DejaVuSans-69" transform="translate(437.744141 0)"/>
      <use xlink:href="#DejaVuSans-63" transform="translate(465.527344 0)"/>
      <use xlink:href="#DejaVuSans-61" transform="translate(520.507812 0)"/>
      <use xlink:href="#DejaVuSans-74" transform="translate(581.787109 0)"/>
      <use xlink:href="#DejaVuSans-69" transform="translate(620.996094 0)"/>
      <use xlink:href="#DejaVuSans-6f" transform="translate(648.779297 0)"/>
      <use xlink:href="#DejaVuSans-6e" transform="translate(709.960938 0)"/>
      <use xlink:href="#DejaVuSans-20" transform="translate(773.339844 0)"/>
      <use xlink:href="#DejaVuSans-72" transform="translate(805.126953 0)"/>
      <use xlink:href="#DejaVuSans-6f" transform="translate(843.990234 0)"/>
      <use xlink:href="#DejaVuSans-75" transform="translate(905.171875 0)"/>
      <use xlink:href="#DejaVuSans-6e" transform="translate(968.550781 0)"/>
      <use xlink:href="#DejaVuSans-64" transform="translate(1031.929688 0)"/>
     </g>
    </g>
   </g>
   <g id="matplotlib.axis_2">
    <g id="ytick_1">
     <g id="line2d_15">
      <path d="M 51.41 328.391256 
L 565.2 328.391256 
" clip-path="url(#pf3dd86ec4a)" style="fill: none; stroke: #b0b0b0; stroke-opacity: 0.3; stroke-width: 0.8; stroke-linecap: square"/>
     </g>
     <g id="line2d_16">
      <defs>
       <path id="m102b4513f8" d="M 0 0 
L -3.5 0 
" style="stroke: #000000; stroke-width: 0.8"/>
      </defs>
      <g>
       <use xlink:href="#m102b4513f8" x="51.41" y="328.391256" style="stroke: #000000; stroke-width: 0.8"/>
      </g>
     </g>
     <g id="text_9">
      <!-- 0.4 -->
      <g transform="translate(28.506875 332.190475) scale(0.1 -0.1)">
       <defs>
        <path id="DejaVuSans-2e" d="M 684 794 
L 1344 794 
L 1344 0 
L 684 0 
L 684 794 
z
" transform="scale(0.015625)"/>
        <path id="DejaVuSans-34" d="M 2419 4116 
L 825 1625 
L 2419 1625 
L 2419 4116 
z
M 2253 4666 
L 3047 4666 
L 3047 1625 
L 3713 1625 
L 3713 1100 
L 3047 1100 
L 3047 0 
L 2419 0 
L 2419 1100 
L 313 1100 
L 313 1709 
L 2253 4666 
z
" transform="scale(0.015625)"/>
       </defs>
       <use xlink:href="#DejaVuSans-30"/>
       <use xlink:href="#DejaVuSans-2e" transform="translate(63.623047 0)"/>
       <use xlink:href="#DejaVuSans-34" transform="translate(95.410156 0)"/>
      </g>
     </g>
    </g>
    <g id="ytick_2">
     <g id="line2d_17">
      <path d="M 51.41 289.605483 
L 565.2 289.605483 
" clip-path="url(#pf3dd86ec4a)" style="fill: none; stroke: #b0b0b0; stroke-opacity: 0.3; stroke-width: 0.8; stroke-linecap: square"/>
     </g>
     <g id="line2d_18">
      <g>
       <use xlink:href="#m102b4513f8" x="51.41" y="289.605483" style="stroke: #000000; stroke-width: 0.8"/>
      </g>
     </g>
     <g id="text_10">
      <!-- 0.6 -->
      <g transform="translate(28.506875 293.404702) scale(0.1 -0.1)">
       <defs>
        <path id="DejaVuSans-36" d="M 2113 2584 
Q 1688 2584 1439 2293 
Q 1191 2003 1191 1497 
Q 1191 994 1439 701 
Q 1688 409 2113 409 
Q 2538 409 2786 701 
Q 3034 994 3034 1497 
Q 3034 2003 2786 2293 
Q 2538 2584 2113 2584 
z
M 3366 4563 
L 3366 3988 
Q 3128 4100 2886 4159 
Q 2644 4219 2406 4219 
Q 1781 4219 1451 3797 
Q 1122 3375 1075 2522 
Q 1259 2794 1537 2939 
Q 1816 3084 2150 3084 
Q 2853 3084 3261 2657 
Q 3669 2231 3669 1497 
Q 3669 778 3244 343 
Q 2819 -91 2113 -91 
Q 1303 -91 875 529 
Q 447 1150 447 2328 
Q 447 3434 972 4092 
Q 1497 4750 2381 4750 
Q 2619 4750 2861 4703 
Q 3103 4656 3366 4563 
z
" transform="scale(0.015625)"/>
       </defs>
       <use xlink:href="#DejaVuSans-30"/>
       <use xlink:href="#DejaVuSans-2e" transform="translate(63.623047 0)"/>
       <use xlink:href="#DejaVuSans-36" transform="translate(95.410156 0)"/>
      </g>
     </g>
    </g>
    <g id="ytick_3">
     <g id="line2d_19">
      <path d="M 51.41 250.81971 
L 565.2 250.81971 
" clip-path="url(#pf3dd86ec4a)" style="fill: none; stroke: #b0b0b0; stroke-opacity: 0.3; stroke-width: 0.8; stroke-linecap: square"/>
     </g>
     <g id="line2d_20">
      <g>
       <use xlink:href="#m102b4513f8" x="51.41" y="250.81971" style="stroke: #000000; stroke-width: 0.8"/>
      </g>
     </g>
     <g id="text_11">
      <!-- 0.8 -->
      <g transform="translate(28.506875 254.618929) scale(0.1 -0.1)">
       <defs>
        <path id="DejaVuSans-38" d="M 2034 2216 
Q 1584 2216 1326 1975 
Q 1069 1734 1069 1313 
Q 1069 891 1326 650 
Q 1584 409 2034 409 
Q 2484 409 2743 651 
Q 3003 894 3003 1313 
Q 3003 1734 2745 1975 
Q 2488 2216 2034 2216 
z
M 1403 2484 
Q 997 2584 770 2862 
Q 544 3141 544 3541 
Q 544 4100 942 4425 
Q 1341 4750 2034 4750 
Q 2731 4750 3128 4425 
Q 3525 4100 3525 3541 
Q 3525 3141 3298 2862 
Q 3072 2584 2669 2484 
Q 3125 2378 3379 2068 
Q 3634 1759 3634 1313 
Q 3634 634 3220 271 
Q 2806 -91 2034 -91 
Q 1263 -91 848 271 
Q 434 634 434 1313 
Q 434 1759 690 2068 
Q 947 2378 1403 2484 
z
M 1172 3481 
Q 1172 3119 1398 2916 
Q 1625 2713 2034 2713 
Q 2441 2713 2670 2916 
Q 2900 3119 2900 3481 
Q 2900 3844 2670 4047 
Q 2441 4250 2034 4250 
Q 1625 4250 1398 4047 
Q 1172 3844 1172 3481 
z
" transform="scale(0.015625)"/>
       </defs>
       <use xlink:href="#DejaVuSans-30"/>
       <use xlink:href="#DejaVuSans-2e" transform="translate(63.623047 0)"/>
       <use xlink:href="#DejaVuSans-38" transform="translate(95.410156 0)"/>
      </g>
     </g>
    </g>
    <g id="ytick_4">
     <g id="line2d_21">
      <path d="M 51.41 212.033937 
L 565.2 212.033937 
" clip-path="url(#pf3dd86ec4a)" style="fill: none; stroke: #b0b0b0; stroke-opacity: 0.3; stroke-width: 0.8; stroke-linecap: square"/>
     </g>
     <g id="line2d_22">
      <g>
       <use xlink:href="#m102b4513f8" x="51.41" y="212.033937" style="stroke: #000000; stroke-width: 0.8"/>
      </g>
     </g>
     <g id="text_12">
      <!-- 1.0 -->
      <g transform="translate(28.506875 215.833156) scale(0.1 -0.1)">
       <use xlink:href="#DejaVuSans-31"/>
       <use xlink:href="#DejaVuSans-2e" transform="translate(63.623047 0)"/>
       <use xlink:href="#DejaVuSans-30" transform="translate(95.410156 0)"/>
      </g>
     </g>
    </g>
    <g id="ytick_5">
     <g id="line2d_23">
      <path d="M 51.41 173.248164 
L 565.2 173.248164 
" clip-path="url(#pf3dd86ec4a)" style="fill: none; stroke: #b0b0b0; stroke-opacity: 0.3; stroke-width: 0.8; stroke-linecap: square"/>
     </g>
     <g id="line2d_24">
      <g>
       <use xlink:href="#m102b4513f8" x="51.41" y="173.248164" style="stroke: #000000; stroke-width: 0.8"/>
      </g>
     </g>
     <g id="text_13">
      <!-- 1.2 -->
      <g transform="translate(28.506875 177.047383) scale(0.1 -0.1)">
       <use xlink:href="#DejaVuSans-31"/>
       <use xlink:href="#DejaVuSans-2e" transform="translate(63.623047 0)"/>
       <use xlink:href="#DejaVuSans-32" transform="translate(95.410156 0)"/>
      </g>
     </g>
    </g>
    <g id="ytick_6">
     <g id="line2d_25">
      <path d="M 51.41 134.462391 
L 565.2 134.462391 
" clip-path="url(#pf3dd86ec4a)" style="fill: none; stroke: #b0b0b0; stroke-opacity: 0.3; stroke-width: 0.8; stroke-linecap: square"/>
     </g>
     <g id="line2d_26">
      <g>
       <use xlink:href="#m102b4513f8" x="51.41" y="134.462391" style="stroke: #000000; stroke-width: 0.8"/>
      </g>
     </g>
     <g id="text_14">
      <!-- 1.4 -->
      <g transform="translate(28.506875 138.26161) scale(0.1 -0.1)">
       <use xlink:href="#DejaVuSans-31"/>
       <use xlink:href="#DejaVuSans-2e" transform="translate(63.623047 0)"/>
       <use xlink:href="#DejaVuSans-34" transform="translate(95.410156 0)"/>
      </g>
     </g>
    </g>
    <g id="ytick_7">
     <g id="line2d_27">
      <path d="M 51.41 95.676618 
L 565.2 95.676618 
" clip-path="url(#pf3dd86ec4a)" style="fill: none; stroke: #b0b0b0; stroke-opacity: 0.3; stroke-width: 0.8; stroke-linecap: square"/>
     </g>
     <g id="line2d_28">
      <g>
       <use xlink:href="#m102b4513f8" x="51.41" y="95.676618" style="stroke: #000000; stroke-width: 0.8"/>
      </g>
     </g>
     <g id="text_15">
      <!-- 1.6 -->
      <g transform="translate(28.506875 99.475836) scale(0.1 -0.1)">
       <use xlink:href="#DejaVuSans-31"/>
       <use xlink:href="#DejaVuSans-2e" transform="translate(63.623047 0)"/>
       <use xlink:href="#DejaVuSans-36" transform="translate(95.410156 0)"/>
      </g>
     </g>
    </g>
    <g id="ytick_8">
     <g id="line2d_29">
      <path d="M 51.41 56.890845 
L 565.2 56.890845 
" clip-path="url(#pf3dd86ec4a)" style="fill: none; stroke: #b0b0b0; stroke-opacity: 0.3; stroke-width: 0.8; stroke-linecap: square"/>
     </g>
     <g id="line2d_30">
      <g>
       <use xlink:href="#m102b4513f8" x="51.41" y="56.890845" style="stroke: #000000; stroke-width: 0.8"/>
      </g>
     </g>
     <g id="text_16">
      <!-- 1.8 -->
      <g transform="translate(28.506875 60.690063) scale(0.1 -0.1)">
       <use xlink:href="#DejaVuSans-31"/>
       <use xlink:href="#DejaVuSans-2e" transform="translate(63.623047 0)"/>
       <use xlink:href="#DejaVuSans-38" transform="translate(95.410156 0)"/>
      </g>
     </g>
    </g>
    <g id="ytick_9">
     <g id="line2d_31">
      <path d="M 51.41 18.105071 
L 565.2 18.105071 
" clip-path="url(#pf3dd86ec4a)" style="fill: none; stroke: #b0b0b0; stroke-opacity: 0.3; stroke-width: 0.8; stroke-linecap: square"/>
     </g>
     <g id="line2d_32">
      <g>
       <use xlink:href="#m102b4513f8" x="51.41" y="18.105071" style="stroke: #000000; stroke-width: 0.8"/>
      </g>
     </g>
     <g id="text_17">
      <!-- 2.0 -->
      <g transform="translate(28.506875 21.90429) scale(0.1 -0.1)">
       <use xlink:href="#DejaVuSans-32"/>
       <use xlink:href="#DejaVuSans-2e" transform="translate(63.623047 0)"/>
       <use xlink:href="#DejaVuSans-30" transform="translate(95.410156 0)"/>
      </g>
     </g>
    </g>
    <g id="text_18">
     <!-- cross-entropy loss -->
     <g transform="translate(21.595313 233.314375) rotate(-90) scale(0.14 -0.14)">
      <defs>
       <path id="DejaVuSans-73" d="M 2834 3397 
L 2834 2853 
Q 2591 2978 2328 3040 
Q 2066 3103 1784 3103 
Q 1356 3103 1142 2972 
Q 928 2841 928 2578 
Q 928 2378 1081 2264 
Q 1234 2150 1697 2047 
L 1894 2003 
Q 2506 1872 2764 1633 
Q 3022 1394 3022 966 
Q 3022 478 2636 193 
Q 2250 -91 1575 -91 
Q 1294 -91 989 -36 
Q 684 19 347 128 
L 347 722 
Q 666 556 975 473 
Q 1284 391 1588 391 
Q 1994 391 2212 530 
Q 2431 669 2431 922 
Q 2431 1156 2273 1281 
Q 2116 1406 1581 1522 
L 1381 1569 
Q 847 1681 609 1914 
Q 372 2147 372 2553 
Q 372 3047 722 3315 
Q 1072 3584 1716 3584 
Q 2034 3584 2315 3537 
Q 2597 3491 2834 3397 
z
" transform="scale(0.015625)"/>
       <path id="DejaVuSans-2d" d="M 313 2009 
L 1997 2009 
L 1997 1497 
L 313 1497 
L 313 2009 
z
" transform="scale(0.015625)"/>
       <path id="DejaVuSans-65" d="M 3597 1894 
L 3597 1613 
L 953 1613 
Q 991 1019 1311 708 
Q 1631 397 2203 397 
Q 2534 397 2845 478 
Q 3156 559 3463 722 
L 3463 178 
Q 3153 47 2828 -22 
Q 2503 -91 2169 -91 
Q 1331 -91 842 396 
Q 353 884 353 1716 
Q 353 2575 817 3079 
Q 1281 3584 2069 3584 
Q 2775 3584 3186 3129 
Q 3597 2675 3597 1894 
z
M 3022 2063 
Q 3016 2534 2758 2815 
Q 2500 3097 2075 3097 
Q 1594 3097 1305 2825 
Q 1016 2553 972 2059 
L 3022 2063 
z
" transform="scale(0.015625)"/>
       <path id="DejaVuSans-70" d="M 1159 525 
L 1159 -1331 
L 581 -1331 
L 581 3500 
L 1159 3500 
L 1159 2969 
Q 1341 3281 1617 3432 
Q 1894 3584 2278 3584 
Q 2916 3584 3314 3078 
Q 3713 2572 3713 1747 
Q 3713 922 3314 415 
Q 2916 -91 2278 -91 
Q 1894 -91 1617 61 
Q 1341 213 1159 525 
z
M 3116 1747 
Q 3116 2381 2855 2742 
Q 2594 3103 2138 3103 
Q 1681 3103 1420 2742 
Q 1159 2381 1159 1747 
Q 1159 1113 1420 752 
Q 1681 391 2138 391 
Q 2594 391 2855 752 
Q 3116 1113 3116 1747 
z
" transform="scale(0.015625)"/>
       <path id="DejaVuSans-79" d="M 2059 -325 
Q 1816 -950 1584 -1140 
Q 1353 -1331 966 -1331 
L 506 -1331 
L 506 -850 
L 844 -850 
Q 1081 -850 1212 -737 
Q 1344 -625 1503 -206 
L 1606 56 
L 191 3500 
L 800 3500 
L 1894 763 
L 2988 3500 
L 3597 3500 
L 2059 -325 
z
" transform="scale(0.015625)"/>
       <path id="DejaVuSans-6c" d="M 603 4863 
L 1178 4863 
L 1178 0 
L 603 0 
L 603 4863 
z
" transform="scale(0.015625)"/>
      </defs>
      <use xlink:href="#DejaVuSans-63"/>
      <use xlink:href="#DejaVuSans-72" transform="translate(54.980469 0)"/>
      <use xlink:href="#DejaVuSans-6f" transform="translate(93.84375 0)"/>
      <use xlink:href="#DejaVuSans-73" transform="translate(155.025391 0)"/>
      <use xlink:href="#DejaVuSans-73" transform="translate(207.125 0)"/>
      <use xlink:href="#DejaVuSans-2d" transform="translate(259.224609 0)"/>
      <use xlink:href="#DejaVuSans-65" transform="translate(295.308594 0)"/>
      <use xlink:href="#DejaVuSans-6e" transform="translate(356.832031 0)"/>
      <use xlink:href="#DejaVuSans-74" transform="translate(420.210938 0)"/>
      <use xlink:href="#DejaVuSans-72" transform="translate(459.419922 0)"/>
      <use xlink:href="#DejaVuSans-6f" transform="translate(498.283203 0)"/>
      <use xlink:href="#DejaVuSans-70" transform="translate(559.464844 0)"/>
      <use xlink:href="#DejaVuSans-79" transform="translate(622.941406 0)"/>
      <use xlink:href="#DejaVuSans-20" transform="translate(682.121094 0)"/>
      <use xlink:href="#DejaVuSans-6c" transform="translate(713.908203 0)"/>
      <use xlink:href="#DejaVuSans-6f" transform="translate(741.691406 0)"/>
      <use xlink:href="#DejaVuSans-73" transform="translate(802.873047 0)"/>
      <use xlink:href="#DejaVuSans-73" transform="translate(854.972656 0)"/>
     </g>
    </g>
   </g>
   <g id="line2d_33">
    <path d="M 74.764091 237.901868 
L 90.870361 259.997552 
L 106.97663 283.685087 
L 123.0829 290.346702 
L 139.189169 293.441467 
L 155.295439 295.516914 
L 171.401708 297.312008 
L 187.507978 298.84234 
L 203.614248 300.17807 
L 219.720517 301.404411 
L 235.826787 302.377903 
L 251.933056 303.269331 
L 268.039326 304.053488 
L 284.145596 304.823442 
L 300.251865 305.467305 
L 316.358135 306.095864 
L 332.464404 306.650106 
L 348.570674 307.22383 
L 364.676944 307.692639 
L 380.783213 308.178997 
L 396.889483 308.642237 
L 412.995752 309.091151 
L 429.102022 309.324862 
L 445.208292 309.592192 
L 461.314561 309.846946 
L 477.420831 310.285793 
L 493.5271 310.589038 
L 509.63337 310.890467 
L 525.739639 311.218148 
L 541.845909 311.481674 
" clip-path="url(#pf3dd86ec4a)" style="fill: none; stroke: #005ab5; stroke-width: 2; stroke-linecap: square"/>
   </g>
   <g id="line2d_34">
    <path d="M 74.764091 181.488856 
L 90.870361 189.92911 
L 106.97663 200.408146 
L 123.0829 202.452555 
L 139.189169 205.863088 
L 155.295439 208.203237 
L 171.401708 210.041343 
L 187.507978 212.341169 
L 203.614248 213.481482 
L 219.720517 214.202756 
L 235.826787 214.582361 
L 251.933056 217.819093 
L 268.039326 223.47409 
L 284.145596 226.079268 
L 300.251865 226.431924 
L 316.358135 227.643917 
L 332.464404 228.091328 
L 348.570674 229.373797 
L 364.676944 230.274218 
L 380.783213 232.269159 
L 396.889483 233.336043 
L 412.995752 233.551668 
L 429.102022 234.088067 
L 445.208292 235.277481 
L 461.314561 236.373042 
L 477.420831 236.5044 
L 493.5271 235.099079 
L 509.63337 235.488786 
L 525.739639 236.36323 
L 541.845909 237.800847 
" clip-path="url(#pf3dd86ec4a)" style="fill: none; stroke: #008000; stroke-width: 2; stroke-linecap: square"/>
   </g>
   <g id="line2d_35">
    <path d="M 74.764091 242.70335 
L 90.870361 263.448397 
L 106.97663 285.646611 
L 123.0829 291.958844 
L 139.189169 295.09131 
L 155.295439 297.365204 
L 171.401708 299.174102 
L 187.507978 300.786228 
L 203.614248 302.142286 
L 219.720517 303.36361 
L 235.826787 304.344392 
L 251.933056 305.287086 
L 268.039326 306.073372 
L 284.145596 306.778679 
L 300.251865 307.408184 
L 316.358135 307.910067 
L 332.464404 308.429531 
L 348.570674 308.926295 
L 364.676944 309.423932 
L 380.783213 309.916885 
L 396.889483 310.32738 
L 412.995752 310.725498 
L 429.102022 311.01924 
L 445.208292 311.30299 
L 461.314561 311.587989 
L 477.420831 311.962427 
L 493.5271 312.280217 
L 509.63337 312.513597 
L 525.739639 312.745426 
L 541.845909 312.924417 
" clip-path="url(#pf3dd86ec4a)" style="fill: none; stroke-dasharray: 7.4,3.2; stroke-dashoffset: 0; stroke: #dc3220; stroke-width: 2"/>
   </g>
   <g id="line2d_36">
    <path d="M 74.764091 28.511052 
L 90.870361 42.724158 
L 106.97663 62.598824 
L 123.0829 79.434644 
L 139.189169 92.553099 
L 155.295439 103.451293 
L 171.401708 113.925118 
L 187.507978 124.598595 
L 203.614248 135.273297 
L 219.720517 145.300423 
L 235.826787 153.914716 
L 251.933056 160.735974 
L 268.039326 165.640151 
L 284.145596 168.356064 
L 300.251865 169.764069 
L 316.358135 170.427005 
L 332.464404 171.161886 
L 348.570674 171.744563 
L 364.676944 172.475444 
L 380.783213 173.37284 
L 396.889483 174.66086 
L 412.995752 176.196376 
L 429.102022 178.145679 
L 445.208292 180.665605 
L 461.314561 183.488513 
L 477.420831 186.411278 
L 493.5271 189.059728 
L 509.63337 191.415372 
L 525.739639 193.574693 
L 541.845909 194.857704 
" clip-path="url(#pf3dd86ec4a)" style="fill: none; stroke-dasharray: 2,3.3; stroke-dashoffset: 0; stroke: #7b3294; stroke-width: 2"/>
   </g>
   <g id="line2d_37">
    <path d="M 74.764091 37.537341 
L 90.870361 55.611512 
L 106.97663 79.719824 
L 123.0829 99.467284 
L 139.189169 116.034769 
L 155.295439 131.435918 
L 171.401708 145.621239 
L 187.507978 157.161665 
L 203.614248 165.061499 
L 219.720517 169.21611 
L 235.826787 170.620437 
L 251.933056 171.502726 
L 268.039326 173.268023 
L 284.145596 175.400418 
L 300.251865 178.025242 
L 316.358135 180.656555 
L 332.464404 184.059896 
L 348.570674 187.559904 
L 364.676944 191.117709 
L 380.783213 194.606052 
L 396.889483 197.843797 
L 412.995752 200.770077 
L 429.102022 203.465381 
L 445.208292 205.981876 
L 461.314561 208.429213 
L 477.420831 210.69917 
L 493.5271 213.02688 
L 509.63337 215.219003 
L 525.739639 217.302748 
L 541.845909 218.46388 
" clip-path="url(#pf3dd86ec4a)" style="fill: none; stroke-dasharray: 2,3.3; stroke-dashoffset: 0; stroke: #f17c05; stroke-width: 2"/>
   </g>
   <g id="patch_3">
    <path d="M 51.41 328.84 
L 51.41 10.8 
" style="fill: none; stroke: #000000; stroke-width: 0.8; stroke-linejoin: miter; stroke-linecap: square"/>
   </g>
   <g id="patch_4">
    <path d="M 565.2 328.84 
L 565.2 10.8 
" style="fill: none; stroke: #000000; stroke-width: 0.8; stroke-linejoin: miter; stroke-linecap: square"/>
   </g>
   <g id="patch_5">
    <path d="M 51.41 328.84 
L 565.2 328.84 
" style="fill: none; stroke: #000000; stroke-width: 0.8; stroke-linejoin: miter; stroke-linecap: square"/>
   </g>
   <g id="patch_6">
    <path d="M 51.41 10.8 
L 565.2 10.8 
" style="fill: none; stroke: #000000; stroke-width: 0.8; stroke-linejoin: miter; stroke-linecap: square"/>
   </g>
   <g id="legend_1">
    <g id="patch_7">
     <path d="M 336.8925 108.46875 
L 556.8 108.46875 
Q 559.2 108.46875 559.2 106.06875 
L 559.2 19.2 
Q 559.2 16.8 556.8 16.8 
L 336.8925 16.8 
Q 334.4925 16.8 334.4925 19.2 
L 334.4925 106.06875 
Q 334.4925 108.46875 336.8925 108.46875 
z
" style="fill: #ffffff; opacity: 0.8; stroke: #cccccc; stroke-linejoin: miter"/>
    </g>
    <g id="line2d_38">
     <path d="M 339.2925 26.518125 
L 351.2925 26.518125 
L 363.2925 26.518125 
" style="fill: none; stroke: #005ab5; stroke-width: 2; stroke-linecap: square"/>
    </g>
    <g id="text_19">
     <!-- FL-SQMPC -->
     <g transform="translate(372.8925 30.718125) scale(0.12 -0.12)">
      <defs>
       <path id="DejaVuSans-46" d="M 628 4666 
L 3309 4666 
L 3309 4134 
L 1259 4134 
L 1259 2759 
L 3109 2759 
L 3109 2228 
L 1259 2228 
L 1259 0 
L 628 0 
L 628 4666 
z
" transform="scale(0.015625)"/>
       <path id="DejaVuSans-4c" d="M 628 4666 
L 1259 4666 
L 1259 531 
L 3531 531 
L 3531 0 
L 628 0 
L 628 4666 
z
" transform="scale(0.015625)"/>
       <path id="DejaVuSans-53" d="M 3425 4513 
L 3425 3897 
Q 3066 4069 2747 4153 
Q 2428 4238 2131 4238 
Q 1616 4238 1336 4038 
Q 1056 3838 1056 3469 
Q 1056 3159 1242 3001 
Q 1428 2844 1947 2747 
L 2328 2669 
Q 3034 2534 3370 2195 
Q 3706 1856 3706 1288 
Q 3706 609 3251 259 
Q 2797 -91 1919 -91 
Q 1588 -91 1214 -16 
Q 841 59 441 206 
L 441 856 
Q 825 641 1194 531 
Q 1563 422 1919 422 
Q 2459 422 2753 634 
Q 3047 847 3047 1241 
Q 3047 1584 2836 1778 
Q 2625 1972 2144 2069 
L 1759 2144 
Q 1053 2284 737 2584 
Q 422 2884 422 3419 
Q 422 4038 858 4394 
Q 1294 4750 2059 4750 
Q 2388 4750 2728 4690 
Q 3069 4631 3425 4513 
z
" transform="scale(0.015625)"/>
       <path id="DejaVuSans-51" d="M 2522 4238 
Q 1834 4238 1429 3725 
Q 1025 3213 1025 2328 
Q 1025 1447 1429 934 
Q 1834 422 2522 422 
Q 3209 422 3611 934 
Q 4013 1447 4013 2328 
Q 4013 3213 3611 3725 
Q 3209 4238 2522 4238 
z
M 3406 84 
L 4238 -825 
L 3475 -825 
L 2784 -78 
Q 2681 -84 2626 -87 
Q 2572 -91 2522 -91 
Q 1538 -91 948 567 
Q 359 1225 359 2328 
Q 359 3434 948 4092 
Q 1538 4750 2522 4750 
Q 3503 4750 4090 4092 
Q 4678 3434 4678 2328 
Q 4678 1516 4351 937 
Q 4025 359 3406 84 
z
" transform="scale(0.015625)"/>
       <path id="DejaVuSans-4d" d="M 628 4666 
L 1569 4666 
L 2759 1491 
L 3956 4666 
L 4897 4666 
L 4897 0 
L 4281 0 
L 4281 4097 
L 3078 897 
L 2444 897 
L 1241 4097 
L 1241 0 
L 628 0 
L 628 4666 
z
" transform="scale(0.015625)"/>
       <path id="DejaVuSans-50" d="M 1259 4147 
L 1259 2394 
L 2053 2394 
Q 2494 2394 2734 2622 
Q 2975 2850 2975 3272 
Q 2975 3691 2734 3919 
Q 2494 4147 2053 4147 
L 1259 4147 
z
M 628 4666 
L 2053 4666 
Q 2838 4666 3239 4311 
Q 3641 3956 3641 3272 
Q 3641 2581 3239 2228 
Q 2838 1875 2053 1875 
L 1259 1875 
L 1259 0 
L 628 0 
L 628 4666 
z
" transform="scale(0.015625)"/>
       <path id="DejaVuSans-43" d="M 4122 4306 
L 4122 3641 
Q 3803 3938 3442 4084 
Q 3081 4231 2675 4231 
Q 1875 4231 1450 3742 
Q 1025 3253 1025 2328 
Q 1025 1406 1450 917 
Q 1875 428 2675 428 
Q 3081 428 3442 575 
Q 3803 722 4122 1019 
L 4122 359 
Q 3791 134 3420 21 
Q 3050 -91 2638 -91 
Q 1578 -91 968 557 
Q 359 1206 359 2328 
Q 359 3453 968 4101 
Q 1578 4750 2638 4750 
Q 3056 4750 3426 4639 
Q 3797 4528 4122 4306 
z
" transform="scale(0.015625)"/>
      </defs>
      <use xlink:href="#DejaVuSans-46"/>
      <use xlink:href="#DejaVuSans-4c" transform="translate(57.519531 0)"/>
      <use xlink:href="#DejaVuSans-2d" transform="translate(111.482422 0)"/>
      <use xlink:href="#DejaVuSans-53" transform="translate(147.566406 0)"/>
      <use xlink:href="#DejaVuSans-51" transform="translate(211.042969 0)"/>
      <use xlink:href="#DejaVuSans-4d" transform="translate(289.753906 0)"/>
      <use xlink:href="#DejaVuSans-50" transform="translate(376.033203 0)"/>
      <use xlink:href="#DejaVuSans-43" transform="translate(436.335938 0)"/>
     </g>
    </g>
    <g id="line2d_39">
     <path d="M 339.2925 44.131875 
L 351.2925 44.131875 
L 363.2925 44.131875 
" style="fill: none; stroke: #008000; stroke-width: 2; stroke-linecap: square"/>
    </g>
    <g id="text_20">
     <!-- CIDIoT -->
     <g transform="translate(372.8925 48.331875) scale(0.12 -0.12)">
      <defs>
       <path id="DejaVuSans-49" d="M 628 4666 
L 1259 4666 
L 1259 0 
L 628 0 
L 628 4666 
z
" transform="scale(0.015625)"/>
       <path id="DejaVuSans-44" d="M 1259 4147 
L 1259 519 
L 2022 519 
Q 2988 519 3436 956 
Q 3884 1394 3884 2338 
Q 3884 3275 3436 3711 
Q 2988 4147 2022 4147 
L 1259 4147 
z
M 628 4666 
L 1925 4666 
Q 3281 4666 3915 4102 
Q 4550 3538 4550 2338 
Q 4550 1131 3912 565 
Q 3275 0 1925 0 
L 628 0 
L 628 4666 
z
" transform="scale(0.015625)"/>
       <path id="DejaVuSans-54" d="M -19 4666 
L 3928 4666 
L 3928 4134 
L 2272 4134 
L 2272 0 
L 1638 0 
L 1638 4134 
L -19 4134 
L -19 4666 
z
" transform="scale(0.015625)"/>
      </defs>
      <use xlink:href="#DejaVuSans-43"/>
      <use xlink:href="#DejaVuSans-49" transform="translate(69.824219 0)"/>
      <use xlink:href="#DejaVuSans-44" transform="translate(99.316406 0)"/>
      <use xlink:href="#DejaVuSans-49" transform="translate(176.318359 0)"/>
      <use xlink:href="#DejaVuSans-6f" transform="translate(205.810547 0)"/>
      <use xlink:href="#DejaVuSans-54" transform="translate(266.992188 0)"/>
     </g>
    </g>
    <g id="line2d_40">
     <path d="M 339.2925 61.745625 
L 351.2925 61.745625 
L 363.2925 61.745625 
" style="fill: none; stroke-dasharray: 7.4,3.2; stroke-dashoffset: 0; stroke: #dc3220; stroke-width: 2"/>
    </g>
    <g id="text_21">
     <!-- HE (CKKS, exact) -->
     <g transform="translate(372.8925 65.945625) scale(0.12 -0.12)">
      <defs>
       <path id="DejaVuSans-48" d="M 628 4666 
L 1259 4666 
L 1259 2753 
L 3553 2753 
L 3553 4666 
L 4184 4666 
L 4184 0 
L 3553 0 
L 3553 2222 
L 1259 2222 
L 1259 0 
L 628 0 
L 628 4666 
z
" transform="scale(0.015625)"/>
       <path id="DejaVuSans-45" d="M 628 4666 
L 3578 4666 
L 3578 4134 
L 1259 4134 
L 1259 2753 
L 3481 2753 
L 3481 2222 
L 1259 2222 
L 1259 531 
L 3634 531 
L 3634 0 
L 628 0 
L 628 4666 
z
" transform="scale(0.015625)"/>
       <path id="DejaVuSans-28" d="M 1984 4856 
Q 1566 4138 1362 3434 
Q 1159 2731 1159 2009 
Q 1159 1288 1364 580 
Q 1569 -128 1984 -844 
L 1484 -844 
Q 1016 -109 783 600 
Q 550 1309 550 2009 
Q 550 2706 781 3412 
Q 1013 4119 1484 4856 
L 1984 4856 
z
" transform="scale(0.015625)"/>
       <path id="DejaVuSans-4b" d="M 628 4666 
L 1259 4666 
L 1259 2694 
L 3353 4666 
L 4166 4666 
L 1850 2491 
L 4331 0 
L 3500 0 
L 1259 2247 
L 1259 0 
L 628 0 
L 628 4666 
z
" transform="scale(0.015625)"/>
       <path id="DejaVuSans-2c" d="M 750 794 
L 1409 794 
L 1409 256 
L 897 -744 
L 494 -744 
L 750 256 
L 750 794 
z
" transform="scale(0.015625)"/>
       <path id="DejaVuSans-78" d="M 3513 3500 
L 2247 1797 
L 3578 0 
L 2900 0 
L 1881 1375 
L 863 0 
L 184 0 
L 1544 1831 
L 300 3500 
L 978 3500 
L 1906 2253 
L 2834 3500 
L 3513 3500 
z
" transform="scale(0.015625)"/>
       <path id="DejaVuSans-29" d="M 513 4856 
L 1013 4856 
Q 1481 4119 1714 3412 
Q 1947 2706 1947 2009 
Q 1947 1309 1714 600 
Q 1481 -109 1013 -844 
L 513 -844 
Q 928 -128 1133 580 
Q 1338 1288 1338 2009 
Q 1338 2731 1133 3434 
Q 928 4138 513 4856 
z
" transform="scale(0.015625)"/>
      </defs>
      <use xlink:href="#DejaVuSans-48"/>
      <use xlink:href="#DejaVuSans-45" transform="translate(75.195312 0)"/>
      <use xlink:href="#DejaVuSans-20" transform="translate(138.378906 0)"/>
      <use xlink:href="#DejaVuSans-28" transform="translate(170.166016 0)"/>
      <use xlink:href="#DejaVuSans-43" transform="translate(209.179688 0)"/>
      <use xlink:href="#DejaVuSans-4b" transform="translate(279.003906 0)"/>
      <use xlink:href="#DejaVuSans-4b" transform="translate(344.580078 0)"/>
      <use xlink:href="#DejaVuSans-53" transform="translate(410.15625 0)"/>
      <use xlink:href="#DejaVuSans-2c" transform="translate(473.632812 0)"/>
      <use xlink:href="#DejaVuSans-20" transform="translate(505.419922 0)"/>
      <use xlink:href="#DejaVuSans-65" transform="translate(537.207031 0)"/>
      <use xlink:href="#DejaVuSans-78" transform="translate(596.980469 0)"/>
      <use xlink:href="#DejaVuSans-61" transform="translate(656.160156 0)"/>
      <use xlink:href="#DejaVuSans-63" transform="translate(717.439453 0)"/>
      <use xlink:href="#DejaVuSans-74" transform="translate(772.419922 0)"/>
      <use xlink:href="#DejaVuSans-29" transform="translate(811.628906 0)"/>
     </g>
    </g>
    <g id="line2d_41">
     <path d="M 339.2925 79.359375 
L 351.2925 79.359375 
L 363.2925 79.359375 
" style="fill: none; stroke-dasharray: 2,3.3; stroke-dashoffset: 0; stroke: #7b3294; stroke-width: 2"/>
    </g>
    <g id="text_22">
     <!-- DP-SGD (eps=8, delta=1e-5) -->
     <g transform="translate(372.8925 83.559375) scale(0.12 -0.12)">
      <defs>
       <path id="DejaVuSans-47" d="M 3809 666 
L 3809 1919 
L 2778 1919 
L 2778 2438 
L 4434 2438 
L 4434 434 
Q 4069 175 3628 42 
Q 3188 -91 2688 -91 
Q 1594 -91 976 548 
Q 359 1188 359 2328 
Q 359 3472 976 4111 
Q 1594 4750 2688 4750 
Q 3144 4750 3555 4637 
Q 3966 4525 4313 4306 
L 4313 3634 
Q 3963 3931 3569 4081 
Q 3175 4231 2741 4231 
Q 1884 4231 1454 3753 
Q 1025 3275 1025 2328 
Q 1025 1384 1454 906 
Q 1884 428 2741 428 
Q 3075 428 3337 486 
Q 3600 544 3809 666 
z
" transform="scale(0.015625)"/>
       <path id="DejaVuSans-3d" d="M 678 2906 
L 4684 2906 
L 4684 2381 
L 678 2381 
L 678 2906 
z
M 678 1631 
L 4684 1631 
L 4684 1100 
L 678 1100 
L 678 1631 
z
" transform="scale(0.015625)"/>
      </defs>
      <use xlink:href="#DejaVuSans-44"/>
      <use xlink:href="#DejaVuSans-50" transform="translate(77.001953 0)"/>
      <use xlink:href="#DejaVuSans-2d" transform="translate(135.054688 0)"/>
      <use xlink:href="#DejaVuSans-53" transform="translate(171.138672 0)"/>
      <use xlink:href="#DejaVuSans-47" transform="translate(234.615234 0)"/>
      <use xlink:href="#DejaVuSans-44" transform="translate(312.105469 0)"/>
      <use xlink:href="#DejaVuSans-20" transform="translate(389.107422 0)"/>
      <use xlink:href="#DejaVuSans-28" transform="translate(420.894531 0)"/>
      <use xlink:href="#DejaVuSans-65" transform="translate(459.908203 0)"/>
      <use xlink:href="#DejaVuSans-70" transform="translate(521.431641 0)"/>
      <use xlink:href="#DejaVuSans-73" transform="translate(584.908203 0)"/>
      <use xlink:href="#DejaVuSans-3d" transform="translate(637.007812 0)"/>
      <use xlink:href="#DejaVuSans-38" transform="translate(720.796875 0)"/>
      <use xlink:href="#DejaVuSans-2c" transform="translate(784.419922 0)"/>
      <use xlink:href="#DejaVuSans-20" transform="translate(816.207031 0)"/>
      <use xlink:href="#DejaVuSans-64" transform="translate(847.994141 0)"/>
      <use xlink:href="#DejaVuSans-65" transform="translate(911.470703 0)"/>
      <use xlink:href="#DejaVuSans-6c" transform="translate(972.994141 0)"/>
      <use xlink:href="#DejaVuSans-74" transform="translate(1000.777344 0)"/>
      <use xlink:href="#DejaVuSans-61" transform="translate(1039.986328 0)"/>
      <use xlink:href="#DejaVuSans-3d" transform="translate(1101.265625 0)"/>
      <use xlink:href="#DejaVuSans-31" transform="translate(1185.054688 0)"/>
      <use xlink:href="#DejaVuSans-65" transform="translate(1248.677734 0)"/>
      <use xlink:href="#DejaVuSans-2d" transform="translate(1310.201172 0)"/>
      <use xlink:href="#DejaVuSans-35" transform="translate(1346.285156 0)"/>
      <use xlink:href="#DejaVuSans-29" transform="translate(1409.908203 0)"/>
     </g>
    </g>
    <g id="line2d_42">
     <path d="M 339.2925 96.973125 
L 351.2925 96.973125 
L 363.2925 96.973125 
" style="fill: none; stroke-dasharray: 2,3.3; stroke-dashoffset: 0; stroke: #f17c05; stroke-width: 2"/>
    </g>
    <g id="text_23">
     <!-- DP-SGD (eps=50, delta=1e-5) -->
     <g transform="translate(372.8925 101.173125) scale(0.12 -0.12)">
      <use xlink:href="#DejaVuSans-44"/>
      <use xlink:href="#DejaVuSans-50" transform="translate(77.001953 0)"/>
      <use xlink:href="#DejaVuSans-2d" transform="translate(135.054688 0)"/>
      <use xlink:href="#DejaVuSans-53" transform="translate(171.138672 0)"/>
      <use xlink:href="#DejaVuSans-47" transform="translate(234.615234 0)"/>
      <use xlink:href="#DejaVuSans-44" transform="translate(312.105469 0)"/>
      <use xlink:href="#DejaVuSans-20" transform="translate(389.107422 0)"/>
      <use xlink:href="#DejaVuSans-28" transform="translate(420.894531 0)"/>
      <use xlink:href="#DejaVuSans-65" transform="translate(459.908203 0)"/>
      <use xlink:href="#DejaVuSans-70" transform="translate(521.431641 0)"/>
      <use xlink:href="#DejaVuSans-73" transform="translate(584.908203 0)"/>
      <use xlink:href="#DejaVuSans-3d" transform="translate(637.007812 0)"/>
      <use xlink:href="#DejaVuSans-35" transform="translate(720.796875 0)"/>
      <use xlink:href="#DejaVuSans-30" transform="translate(784.419922 0)"/>
      <use xlink:href="#DejaVuSans-2c" transform="translate(848.042969 0)"/>
      <use xlink:href="#DejaVuSans-20" transform="translate(879.830078 0)"/>
      <use xlink:href="#DejaVuSans-64" transform="translate(911.617188 0)"/>
      <use xlink:href="#DejaVuSans-65" transform="translate(975.09375 0)"/>
      <use xlink:href="#DejaVuSans-6c" transform="translate(1036.617188 0)"/>
      <use xlink:href="#DejaVuSans-74" transform="translate(1064.400391 0)"/>
      <use xlink:href="#DejaVuSans-61" transform="translate(1103.609375 0)"/>
      <use xlink:href="#DejaVuSans-3d" transform="translate(1164.888672 0)"/>
      <use xlink:href="#DejaVuSans-31" transform="translate(1248.677734 0)"/>
      <use xlink:href="#DejaVuSans-65" transform="translate(1312.300781 0)"/>
      <use xlink:href="#DejaVuSans-2d" transform="translate(1373.824219 0)"/>
      <use xlink:href="#DejaVuSans-35" transform="translate(1409.908203 0)"/>
      <use xlink:href="#DejaVuSans-29" transform="translate(1473.53125 0)"/>
     </g>
    </g>
   </g>
  </g>
 </g>
 <defs>
  <clipPath id="pf3dd86ec4a">
   <rect x="51.41" y="10.8" width="513.79" height="318.04"/>
  </clipPath>
 </defs>
</svg>
